<mxfile host="Electron" agent="Mozilla/5.0 (Windows NT 10.0; Win64; x64) AppleWebKit/537.36 (KHTML, like Gecko) draw.io/24.7.8 Chrome/128.0.6613.36 Electron/32.0.1 Safari/537.36" version="24.7.8">
  <diagram name="Page-1" id="O_M4rrgs7N174Pg8CNOR">
    <mxGraphModel dx="1434" dy="854" grid="1" gridSize="10" guides="1" tooltips="1" connect="1" arrows="1" fold="1" page="1" pageScale="1" pageWidth="850" pageHeight="1100" math="0" shadow="0">
      <root>
        <mxCell id="0" />
        <mxCell id="1" parent="0" />
        <mxCell id="CeJNU_0dINKhSRgmmjDl-9" style="edgeStyle=orthogonalEdgeStyle;rounded=0;orthogonalLoop=1;jettySize=auto;html=1;exitX=0.5;exitY=1;exitDx=0;exitDy=0;entryX=0.5;entryY=0;entryDx=0;entryDy=0;" edge="1" parent="1" source="CeJNU_0dINKhSRgmmjDl-1" target="CeJNU_0dINKhSRgmmjDl-3">
          <mxGeometry relative="1" as="geometry" />
        </mxCell>
        <mxCell id="CeJNU_0dINKhSRgmmjDl-1" value="Start" style="ellipse;whiteSpace=wrap;html=1;" vertex="1" parent="1">
          <mxGeometry x="365" y="10" width="120" height="80" as="geometry" />
        </mxCell>
        <mxCell id="CeJNU_0dINKhSRgmmjDl-2" value="End" style="ellipse;whiteSpace=wrap;html=1;" vertex="1" parent="1">
          <mxGeometry x="365" y="650" width="120" height="80" as="geometry" />
        </mxCell>
        <mxCell id="CeJNU_0dINKhSRgmmjDl-10" style="edgeStyle=orthogonalEdgeStyle;rounded=0;orthogonalLoop=1;jettySize=auto;html=1;exitX=0.5;exitY=1;exitDx=0;exitDy=0;entryX=0.5;entryY=0;entryDx=0;entryDy=0;" edge="1" parent="1" source="CeJNU_0dINKhSRgmmjDl-3" target="CeJNU_0dINKhSRgmmjDl-4">
          <mxGeometry relative="1" as="geometry" />
        </mxCell>
        <mxCell id="CeJNU_0dINKhSRgmmjDl-3" value="define labor_cost_per_hour = 30&lt;div&gt;define hours, material_cost,&amp;nbsp;&lt;span style=&quot;background-color: initial;&quot;&gt;total_cost&amp;nbsp;&lt;/span&gt;&lt;div&gt;&lt;br&gt;&lt;/div&gt;&lt;/div&gt;" style="rounded=0;whiteSpace=wrap;html=1;" vertex="1" parent="1">
          <mxGeometry x="225.5" y="110" width="400" height="70" as="geometry" />
        </mxCell>
        <mxCell id="CeJNU_0dINKhSRgmmjDl-11" style="edgeStyle=orthogonalEdgeStyle;rounded=0;orthogonalLoop=1;jettySize=auto;html=1;exitX=0.5;exitY=1;exitDx=0;exitDy=0;entryX=0.5;entryY=0;entryDx=0;entryDy=0;" edge="1" parent="1" source="CeJNU_0dINKhSRgmmjDl-4" target="CeJNU_0dINKhSRgmmjDl-5">
          <mxGeometry relative="1" as="geometry" />
        </mxCell>
        <mxCell id="CeJNU_0dINKhSRgmmjDl-4" value="input hours" style="shape=parallelogram;perimeter=parallelogramPerimeter;whiteSpace=wrap;html=1;fixedSize=1;" vertex="1" parent="1">
          <mxGeometry x="365" y="210" width="120" height="60" as="geometry" />
        </mxCell>
        <mxCell id="CeJNU_0dINKhSRgmmjDl-12" style="edgeStyle=orthogonalEdgeStyle;rounded=0;orthogonalLoop=1;jettySize=auto;html=1;exitX=0.5;exitY=1;exitDx=0;exitDy=0;entryX=0.5;entryY=0;entryDx=0;entryDy=0;" edge="1" parent="1" source="CeJNU_0dINKhSRgmmjDl-5" target="CeJNU_0dINKhSRgmmjDl-6">
          <mxGeometry relative="1" as="geometry" />
        </mxCell>
        <mxCell id="CeJNU_0dINKhSRgmmjDl-5" value="input material_cost" style="shape=parallelogram;perimeter=parallelogramPerimeter;whiteSpace=wrap;html=1;fixedSize=1;" vertex="1" parent="1">
          <mxGeometry x="350" y="290" width="150" height="60" as="geometry" />
        </mxCell>
        <mxCell id="CeJNU_0dINKhSRgmmjDl-13" style="edgeStyle=orthogonalEdgeStyle;rounded=0;orthogonalLoop=1;jettySize=auto;html=1;exitX=0.5;exitY=1;exitDx=0;exitDy=0;entryX=0.5;entryY=0;entryDx=0;entryDy=0;" edge="1" parent="1" source="CeJNU_0dINKhSRgmmjDl-6" target="CeJNU_0dINKhSRgmmjDl-7">
          <mxGeometry relative="1" as="geometry" />
        </mxCell>
        <mxCell id="CeJNU_0dINKhSRgmmjDl-6" value="total_cost = (hours * labor_cost_per_hour) + (material_cost * 1.2)" style="rounded=0;whiteSpace=wrap;html=1;" vertex="1" parent="1">
          <mxGeometry x="239" y="380" width="372" height="60" as="geometry" />
        </mxCell>
        <mxCell id="CeJNU_0dINKhSRgmmjDl-14" style="edgeStyle=orthogonalEdgeStyle;rounded=0;orthogonalLoop=1;jettySize=auto;html=1;exitX=0.5;exitY=1;exitDx=0;exitDy=0;entryX=0.5;entryY=0;entryDx=0;entryDy=0;" edge="1" parent="1" source="CeJNU_0dINKhSRgmmjDl-7" target="CeJNU_0dINKhSRgmmjDl-8">
          <mxGeometry relative="1" as="geometry" />
        </mxCell>
        <mxCell id="CeJNU_0dINKhSRgmmjDl-7" value="output total cost" style="shape=parallelogram;perimeter=parallelogramPerimeter;whiteSpace=wrap;html=1;fixedSize=1;" vertex="1" parent="1">
          <mxGeometry x="350.5" y="470" width="150" height="60" as="geometry" />
        </mxCell>
        <mxCell id="CeJNU_0dINKhSRgmmjDl-15" style="edgeStyle=orthogonalEdgeStyle;rounded=0;orthogonalLoop=1;jettySize=auto;html=1;exitX=0.5;exitY=1;exitDx=0;exitDy=0;entryX=0.5;entryY=0;entryDx=0;entryDy=0;" edge="1" parent="1" source="CeJNU_0dINKhSRgmmjDl-8" target="CeJNU_0dINKhSRgmmjDl-2">
          <mxGeometry relative="1" as="geometry" />
        </mxCell>
        <mxCell id="CeJNU_0dINKhSRgmmjDl-8" value="output End of program" style="shape=parallelogram;perimeter=parallelogramPerimeter;whiteSpace=wrap;html=1;fixedSize=1;" vertex="1" parent="1">
          <mxGeometry x="350" y="550" width="150" height="60" as="geometry" />
        </mxCell>
      </root>
    </mxGraphModel>
  </diagram>
</mxfile>
